  0
SECTION
  2
HEADER
  9
$ACADVER
  1
AC1009
  9
$INSBASE
 10
0.0
 20
0.0
 30
0.0
  9
$EXTMIN
 10
0.0
 20
0.0
 30
0.0
  9
$EXTMAX
 10
0.0
 20
0.0
 30
0.0
  0
ENDSEC
  0
SECTION
  2
TABLES
  0
TABLE
  2
VPORT
 70
0
  0
ENDTAB
  0
TABLE
  2
LTYPE
 70
1
  0
LTYPE
  2
CONTINUOUS
 70
0
  3
Solid line
 72
65
 73
0
 40
0.0
  0
ENDTAB
  0
TABLE
  2
LAYER
 70
1
  0
LAYER
  2
0
 70
64
 62
7
  6
continuous
  0
ENDTAB
  0
TABLE
  2
STYLE
 70
1
  0
STYLE
  2
STANDARD
 70
0
 40
0
 41
1.0
 50
0.0
 71
0
 42
1
 3
ARIAL.TTF
 4

  0
ENDTAB
  0
TABLE
  2
VIEW
 70
0
  0
ENDTAB
  0
ENDSEC
  0
SECTION
  2
BLOCKS
  0
BLOCK
  8
0
  2
BODY
 70
0
 10
0.0
 20
0.0
 30
0.0
  3
BODY
  0
LINE
  8
0
 62
0
 10
-240.5
 20
22.25
 30
0.0
 11
240.5
 21
22.25
 31
0.0
  0
LINE
  8
0
 62
0
 10
-240.5
 20
-22.25
 30
0.0
 11
-240.5
 21
22.25
 31
0.0
  0
LINE
  8
0
 62
0
 10
240.5
 20
22.25
 30
0.0
 11
240.5
 21
-22.25
 31
0.0
  0
LINE
  8
0
 62
0
 10
240.5
 20
-22.25
 30
0.0
 11
-240.5
 21
-22.25
 31
0.0
  0
CIRCLE
  8
0
 62
0
 10
199.0
 20
-5.250000000000001
 30
0.0
 40
1.5
  0
LINE
  8
0
 62
0
 10
151.5
 20
6.649999999999999
 30
0.0
 11
177.5
 21
6.649999999999999
 31
0.0
  0
LINE
  8
0
 62
0
 10
151.5
 20
-8.850000000000001
 30
0.0
 11
151.5
 21
6.649999999999999
 31
0.0
  0
LINE
  8
0
 62
0
 10
177.5
 20
6.649999999999999
 30
0.0
 11
177.5
 21
-8.850000000000001
 31
0.0
  0
LINE
  8
0
 62
0
 10
177.5
 20
-8.850000000000001
 30
0.0
 11
151.5
 21
-8.850000000000001
 31
0.0
  0
CIRCLE
  8
0
 62
0
 10
-167.5
 20
-5.250000000000001
 30
0.0
 40
1.5
  0
LINE
  8
0
 62
0
 10
-198.0
 20
2.9499999999999993
 30
0.0
 11
-187.5
 21
2.9499999999999993
 31
0.0
  0
LINE
  8
0
 62
0
 10
-187.5
 20
2.9499999999999993
 30
0.0
 11
-187.5
 21
-9.05
 31
0.0
  0
LINE
  8
0
 62
0
 10
-187.5
 20
-9.05
 30
0.0
 11
-198.0
 21
-9.05
 31
0.0
  0
LINE
  8
0
 62
0
 10
-198.0
 20
-9.05
 30
0.0
 11
-198.0
 21
2.9499999999999993
 31
0.0
  0
LINE
  8
0
 62
0
 10
-182.5
 20
12.75
 30
0.0
 11
-174.5
 21
12.75
 31
0.0
  0
LINE
  8
0
 62
0
 10
-182.5
 20
-7.25
 30
0.0
 11
-182.5
 21
12.75
 31
0.0
  0
LINE
  8
0
 62
0
 10
-174.5
 20
12.75
 30
0.0
 11
-174.5
 21
-7.25
 31
0.0
  0
LINE
  8
0
 62
0
 10
-174.5
 20
-7.25
 30
0.0
 11
-182.5
 21
-7.25
 31
0.0
  0
CIRCLE
  8
0
 62
0
 10
-151.5
 20
4.25
 30
0.0
 40
6.0
  0
CIRCLE
  8
0
 62
0
 10
199.0
 20
9.25
 30
0.0
 40
1.5
  0
LINE
  8
0
 62
0
 10
27.19999999999999
 20
18.15
 30
0.0
 11
144.2
 21
18.15
 31
0.0
  0
LINE
  8
0
 62
0
 10
27.19999999999999
 20
-8.850000000000001
 30
0.0
 11
27.19999999999999
 21
18.15
 31
0.0
  0
LINE
  8
0
 62
0
 10
144.2
 20
18.15
 30
0.0
 11
144.2
 21
-8.850000000000001
 31
0.0
  0
LINE
  8
0
 62
0
 10
144.2
 20
-8.850000000000001
 30
0.0
 11
27.19999999999999
 21
-8.850000000000001
 31
0.0
  0
LINE
  8
0
 62
0
 10
-128.3
 20
18.15
 30
0.0
 11
-11.299999999999997
 21
18.15
 31
0.0
  0
LINE
  8
0
 62
0
 10
-128.3
 20
-8.850000000000001
 30
0.0
 11
-128.3
 21
18.15
 31
0.0
  0
LINE
  8
0
 62
0
 10
-11.299999999999997
 20
18.15
 30
0.0
 11
-11.299999999999997
 21
-8.850000000000001
 31
0.0
  0
LINE
  8
0
 62
0
 10
-11.299999999999997
 20
-8.850000000000001
 30
0.0
 11
-128.3
 21
-8.850000000000001
 31
0.0
  0
CIRCLE
  8
0
 62
0
 10
-167.5
 20
9.25
 30
0.0
 40
1.5
  0
ENDBLK
  0
ENDSEC
  0
SECTION
  2
ENTITIES
  0
INSERT
  2
BODY
  8
0
 62
0
 10
0.0
 20
0.0
 30
0.0
  0
ENDSEC
  0
EOF
